<svg id="visual" viewBox="0 0 900 600" width="900" height="600" xmlns="http://www.w3.org/2000/svg"
  xmlns:xlink="http://www.w3.org/1999/xlink" version="1.1">
  <path
    d="M0 388L13.7 366.8C27.3 345.7 54.7 303.3 82 287.8C109.3 272.3 136.7 283.7 163.8 303.5C191 323.3 218 351.7 245.2 360.2C272.3 368.7 299.7 357.3 327 345.2C354.3 333 381.7 320 409 327.5C436.3 335 463.7 363 491 370.2C518.3 377.3 545.7 363.7 573 345.7C600.3 327.7 627.7 305.3 654.8 307.8C682 310.3 709 337.7 736.2 353.3C763.3 369 790.7 373 818 370.2C845.3 367.3 872.7 357.7 886.3 352.8L900 348L900 601L886.3 601C872.7 601 845.3 601 818 601C790.7 601 763.3 601 736.2 601C709 601 682 601 654.8 601C627.7 601 600.3 601 573 601C545.7 601 518.3 601 491 601C463.7 601 436.3 601 409 601C381.7 601 354.3 601 327 601C299.7 601 272.3 601 245.2 601C218 601 191 601 163.8 601C136.7 601 109.3 601 82 601C54.7 601 27.3 601 13.7 601L0 601Z"
    fill="#a855f7"></path>
  <path
    d="M0 381L13.7 374C27.3 367 54.7 353 82 360.5C109.3 368 136.7 397 163.8 398.3C191 399.7 218 373.3 245.2 370C272.3 366.7 299.7 386.3 327 402.5C354.3 418.7 381.7 431.3 409 424.2C436.3 417 463.7 390 491 390.7C518.3 391.3 545.7 419.7 573 423.8C600.3 428 627.7 408 654.8 395.7C682 383.3 709 378.7 736.2 376C763.3 373.3 790.7 372.7 818 375.5C845.3 378.3 872.7 384.7 886.3 387.8L900 391L900 601L886.3 601C872.7 601 845.3 601 818 601C790.7 601 763.3 601 736.2 601C709 601 682 601 654.8 601C627.7 601 600.3 601 573 601C545.7 601 518.3 601 491 601C463.7 601 436.3 601 409 601C381.7 601 354.3 601 327 601C299.7 601 272.3 601 245.2 601C218 601 191 601 163.8 601C136.7 601 109.3 601 82 601C54.7 601 27.3 601 13.7 601L0 601Z"
    fill="#8569fc"></path>
  <path
    d="M0 410L13.7 414.3C27.3 418.7 54.7 427.3 82 426C109.3 424.7 136.7 413.3 163.8 408.5C191 403.7 218 405.3 245.2 413.3C272.3 421.3 299.7 435.7 327 439.7C354.3 443.7 381.7 437.3 409 443.7C436.3 450 463.7 469 491 480.5C518.3 492 545.7 496 573 497.7C600.3 499.3 627.7 498.7 654.8 493C682 487.3 709 476.7 736.2 470C763.3 463.3 790.7 460.7 818 464.2C845.3 467.7 872.7 477.3 886.3 482.2L900 487L900 601L886.3 601C872.7 601 845.3 601 818 601C790.7 601 763.3 601 736.2 601C709 601 682 601 654.8 601C627.7 601 600.3 601 573 601C545.7 601 518.3 601 491 601C463.7 601 436.3 601 409 601C381.7 601 354.3 601 327 601C299.7 601 272.3 601 245.2 601C218 601 191 601 163.8 601C136.7 601 109.3 601 82 601C54.7 601 27.3 601 13.7 601L0 601Z"
    fill="#6178fc"></path>
  <path
    d="M0 506L13.7 507.3C27.3 508.7 54.7 511.3 82 511.5C109.3 511.7 136.7 509.3 163.8 510.3C191 511.3 218 515.7 245.2 511.5C272.3 507.3 299.7 494.7 327 489.3C354.3 484 381.7 486 409 496.5C436.3 507 463.7 526 491 523.8C518.3 521.7 545.7 498.3 573 494.3C600.3 490.3 627.7 505.7 654.8 515.5C682 525.3 709 529.7 736.2 530C763.3 530.3 790.7 526.7 818 530C845.3 533.3 872.7 543.7 886.3 548.8L900 554L900 601L886.3 601C872.7 601 845.3 601 818 601C790.7 601 763.3 601 736.2 601C709 601 682 601 654.8 601C627.7 601 600.3 601 573 601C545.7 601 518.3 601 491 601C463.7 601 436.3 601 409 601C381.7 601 354.3 601 327 601C299.7 601 272.3 601 245.2 601C218 601 191 601 163.8 601C136.7 601 109.3 601 82 601C54.7 601 27.3 601 13.7 601L0 601Z"
    fill="#3b82f6"></path>
</svg>
